<svg width="48" height="48" viewBox="0 0 48 48" fill="none" xmlns="http://www.w3.org/2000/svg">
<path d="M38.8 23.65C38.6333 19.6167 37.15 16.2 34.35 13.4C31.55 10.6 28.1333 9.11668 24.1 8.95001V5.95001C26.5 6.01668 28.7583 6.52501 30.875 7.47501C32.9917 8.42501 34.85 9.70001 36.45 11.3C38.05 12.9 39.325 14.7583 40.275 16.875C41.225 18.9917 41.7333 21.25 41.8 23.65H38.8ZM30.35 23.65C30.1833 21.9833 29.5167 20.575 28.35 19.425C27.1833 18.275 25.7667 17.6167 24.1 17.45V14.45C26.6 14.6167 28.725 15.5667 30.475 17.3C32.225 19.0333 33.1833 21.15 33.35 23.65H30.35ZM39.75 42C35.6833 42 31.6417 41 27.625 39C23.6083 37 20 34.4 16.8 31.2C13.6 28 11 24.3917 9 20.375C7 16.3583 6 12.3167 6 8.25001C6 7.61668 6.21667 7.08335 6.65 6.65001C7.08333 6.21668 7.61667 6.00001 8.25 6.00001H15.25C15.7167 6.00001 16.125 6.15835 16.475 6.47501C16.825 6.79168 17.05 7.21668 17.15 7.75001L18.5 14.05C18.5667 14.5167 18.5583 14.9417 18.475 15.325C18.3917 15.7083 18.2167 16.0333 17.95 16.3L12.95 21.35C14.8167 24.45 16.9083 27.15 19.225 29.45C21.5417 31.75 24.1667 33.7 27.1 35.3L31.85 30.4C32.1833 30.0333 32.5667 29.775 33 29.625C33.4333 29.475 33.8667 29.45 34.3 29.55L40.25 30.85C40.75 30.95 41.1667 31.2 41.5 31.6C41.8333 32 42 32.4667 42 33V39.75C42 40.3833 41.7833 40.9167 41.35 41.35C40.9167 41.7833 40.3833 42 39.75 42ZM11.45 18.6L15.5 14.5L14.35 9.00001H9C9 10.3 9.2 11.725 9.6 13.275C10 14.825 10.6167 16.6 11.45 18.6ZM39 39V33.65L33.85 32.6L29.9 36.75C31.2667 37.3833 32.75 37.9 34.35 38.3C35.95 38.7 37.5 38.9333 39 39Z" fill="#6B7073"/>
</svg>
